{
    "asset" : {
        "generator" : "Khronos glTF Blender I/O v0.9.36",
        "version" : "2.0"
    },
    "scene" : 0,
    "scenes" : [
        {
            "name" : "Scene",
            "nodes" : [
                0
            ]
        }
    ],
    "nodes" : [
        {
            "mesh" : 0,
            "name" : "full",
            "rotation" : [
                0.7071067690849304,
                0,
                0,
                0.7071067690849304
            ]
        }
    ],
    "materials" : [
        {
            "doubleSided" : true,
            "name" : "UnnamedMaterial",
            "pbrMetallicRoughness" : {
                "metallicFactor" : 0,
                "roughnessFactor" : 1
            }
        },
        {
            "doubleSided" : true,
            "name" : "UnnamedMaterial.001",
            "pbrMetallicRoughness" : {
                "metallicFactor" : 0,
                "roughnessFactor" : 1
            }
        }
    ],
    "meshes" : [
        {
            "name" : "full",
            "primitives" : [
                {
                    "attributes" : {
                        "POSITION" : 0,
                        "NORMAL" : 1,
                        "COLOR_0" : 2
                    },
                    "indices" : 3,
                    "material" : 0
                },
                {
                    "attributes" : {
                        "POSITION" : 4,
                        "NORMAL" : 5,
                        "COLOR_0" : 6
                    },
                    "indices" : 7,
                    "material" : 1
                }
            ]
        }
    ],
    "accessors" : [
        {
            "bufferView" : 0,
            "componentType" : 5126,
            "count" : 18947,
            "max" : [
                0.49630001187324524,
                0.3215000331401825,
                0.8521039485931396
            ],
            "min" : [
                -0.49630001187324524,
                -0.10099996626377106,
                -0.8137960433959961
            ],
            "type" : "VEC3"
        },
        {
            "bufferView" : 1,
            "componentType" : 5126,
            "count" : 18947,
            "type" : "VEC3"
        },
        {
            "bufferView" : 2,
            "componentType" : 5126,
            "count" : 18947,
            "type" : "VEC4"
        },
        {
            "bufferView" : 3,
            "componentType" : 5123,
            "count" : 81900,
            "type" : "SCALAR"
        },
        {
            "bufferView" : 4,
            "componentType" : 5126,
            "count" : 745,
            "max" : [
                0.1866358518600464,
                0.16294221580028534,
                0.11527836322784424
            ],
            "min" : [
                -0.18663494288921356,
                -0.10216917842626572,
                -0.43997347354888916
            ],
            "type" : "VEC3"
        },
        {
            "bufferView" : 5,
            "componentType" : 5126,
            "count" : 745,
            "type" : "VEC3"
        },
        {
            "bufferView" : 6,
            "componentType" : 5126,
            "count" : 745,
            "type" : "VEC4"
        },
        {
            "bufferView" : 7,
            "componentType" : 5123,
            "count" : 3216,
            "type" : "SCALAR"
        }
    ],
    "bufferViews" : [
        {
            "buffer" : 0,
            "byteLength" : 227364,
            "byteOffset" : 0
        },
        {
            "buffer" : 0,
            "byteLength" : 227364,
            "byteOffset" : 227364
        },
        {
            "buffer" : 0,
            "byteLength" : 303152,
            "byteOffset" : 454728
        },
        {
            "buffer" : 0,
            "byteLength" : 163800,
            "byteOffset" : 757880
        },
        {
            "buffer" : 0,
            "byteLength" : 8940,
            "byteOffset" : 921680
        },
        {
            "buffer" : 0,
            "byteLength" : 8940,
            "byteOffset" : 930620
        },
        {
            "buffer" : 0,
            "byteLength" : 11920,
            "byteOffset" : 939560
        },
        {
            "buffer" : 0,
            "byteLength" : 6432,
            "byteOffset" : 951480
        }
    ],
    "buffers" : [
        {
            "byteLength" : 957912,
            "uri" : "data:application/octet-stream;base64,"
        }
    ]
}
